<?xml version="1.0" encoding="UTF-8"?>
<svg id="Livello_2" data-name="Livello 2" xmlns="http://www.w3.org/2000/svg" viewBox="0 0 547.49 547.49">
  <defs>
    <style>
      .cls-1 {
        fill: #0f1829;
      }

      .cls-2 {
        fill: #58f2a6;
      }
    </style>
  </defs>
  <g id="Livello_1-2" data-name="Livello 1">
    <rect class="cls-1" width="547.49" height="547.49"/>
    <g>
      <path class="cls-2" d="M250.48,159.84c4.88,.55,9.09,.32,8.21,6.76-.58,4.24,2.67,3.38,5.35,3.18,1.86-.14,3.75,.26,5.63,.41-1.56,.95-3,2.2-4.69,2.78-4.36,1.48-6.45,3.86-5.96,8.89,.63,6.58,.41,13.24,.47,19.87,.04,4.07,1.44,6.06,6.04,6.02,20.81-.2,41.63-.01,62.44-.2,2.2-.02,4.93-1.03,6.47-2.54,4.14-4.06,8.46-8.23,11.43-13.13,3.82-6.31,2.43-9.81-4.28-12.46-13.42-5.29-22.12-15.27-28.56-27.62-.6-1.15-.27-2.78-.37-4.19,1.44,.44,3.23,.49,4.26,1.4,2.06,1.82,3.57,4.24,5.54,6.18,2.05,2.02,4.18,2.33,6.26-.29,2.2-2.77,4.48-5.53,7.08-7.9,.93-.85,2.89-.59,4.38-.83-.05,1.4,.39,3.08-.23,4.14-2.11,3.57-4.64,6.89-6.94,10.35-2.02,3.04-1.64,5.43,1.99,6.93,3.83,1.58,7.51,3.68,11.47,4.79,5.4,1.52,8.91-.84,9.3-6.45,.32-4.7-.44-9.48-.8-14.22-.08-1.06-.75-2.14-.63-3.15,.18-1.52,.82-2.98,1.27-4.47,1.34,1,3.28,1.72,3.89,3.05,1.33,2.91,1.74,6.23,2.99,9.19,1.12,2.68,2.85,5.1,4.31,7.64,2.2-2.42,4.98-4.54,6.43-7.35,1.42-2.76,1.33-6.27,2.23-9.36,.36-1.25,1.59-2.25,2.42-3.37,.97,1.17,2.57,2.24,2.79,3.54,1.09,6.42-.22,12.58-4.91,17.12-8.4,8.15-12.89,18.19-16.07,29.15-1.31,4.53-3.37,8.85-5.16,13.44,12.95,2.52,27.02-3.25,39.65,4.77,.55-.96,1.12-1.97,1.72-3.02,.22,.13,.56,.21,.61,.38,2.94,9.49,4.06,19.18,3.81,29.14-.31,12.33-.13,24.66-.14,37,0,1.01,.13,2.03,.25,3.86,16.72-13.56,34.8-23.13,54.6-29.61-5.71,3.88-11.73,7.4-17.08,11.73-11.95,9.67-23.66,19.64-35.27,29.71-3.2,2.78-3.74,15.42-1.14,18.75,.67,.86,2.31,1.36,3.51,1.37,14.18,.09,28.37-.08,42.55,.17,3.21,.06,3.69-2.05,4.95-3.85,3.87-5.5,10.78-7.09,16.33-3.78,5.65,3.37,7.8,10.34,4.95,16.05-2.88,5.77-9.95,8.7-15.65,5.9-2.46-1.2-4.23-3.8-6.35-5.73-.94-.86-1.95-2.32-2.94-2.33-11.19-.17-22.39-.11-35.12-.11,10.24,5.97,10.89,14.87,11.32,23.9,.24,5.07,.39,10.16,1.09,15.17,.64,4.52,3.36,7.97,7.55,9.88,3.79,1.73,7.24,3.18,10.2-2.15,2.68-4.83,8.85-6.05,13.92-4.11,4.95,1.9,8.35,7.17,7.97,12.36-.39,5.41-4.56,10.11-10.04,11.29-5.11,1.1-10.34-1.6-13.22-6.4-.99-1.65-2.58-3.62-4.27-4.08-12.76-3.49-17.67-9.39-18.38-22.99-.24-4.46,0-8.96-.37-13.4-1-12.04-6.46-16.52-19.38-15.56,0,1.56,0,3.18,0,4.8,0,17.73,.02,35.46,0,53.19-.02,12.91-7.48,20.4-20.34,20.42-25.44,.02-50.88,0-76.31,0h-5.47c1.84,6.06,6.17,9.12,10.64,12.13,3.69,2.49,7.5,4.88,10.8,7.82,3.14,2.79,4.59,6.58,3.05,10.89-1.57,4.38-5.02,6.48-9.4,7.18-1.66,.27-3.38,.26-5.07,.26-28.98,.01-57.97-.01-86.95,.03-6.15,0-11.9-.75-14.55-7.36-1.87-4.67,.77-9.91,7.19-14.66,3.46-2.56,7.27-4.69,10.54-7.47,2.59-2.2,4.6-5.08,6.87-7.66l-.68-1.15h-4.86c-25.13,0-50.26,0-75.39,0-13.55,0-20.91-7.31-20.92-20.77,0-50.26-.01-100.52,0-150.78,0-13.24,7.38-20.63,20.57-20.66,4.46-.01,8.92,0,14.12,0-7.83-14.65-8.6-31.99-21.78-43.55-4.97-4.36-6.74-10.67-5.62-17.33,.27-1.62,1.85-3.03,2.82-4.53,.89,1.41,2.03,2.72,2.63,4.24,1.77,4.51,2.73,9.47,5.14,13.58,2.55,4.35,5.3,3.76,6.93-.99,1.45-4.22,2.27-8.66,3.92-12.78,.64-1.59,2.81-2.56,4.28-3.81,.38,1.76,1.14,3.54,1.08,5.29-.23,5.95-1.4,11.93-.96,17.81,.42,5.7,4,7.66,9.54,5.9,4.22-1.34,8.16-3.55,12.24-5.33,3.05-1.33,3.21-3.52,1.68-6-2.09-3.41-4.58-6.59-6.48-10.09-.86-1.58-1.64-4.65-.87-5.41,2.43-2.38,3.98,.38,5.47,2.01,2.07,2.28,4.16,4.56,6.05,6.99,2.03,2.62,4.1,2.47,6.19,.32,1.93-1.98,3.5-4.34,5.57-6.14,1.17-1.01,3.02-1.24,4.56-1.82-.12,1.55,.22,3.33-.43,4.62-6.7,13.24-16.39,23.32-30.51,28.8-5.04,1.96-5.93,4.04-4.31,9.28,2.55,8.27,9.03,13.4,15.5,18.42,.82,.64,2.36,.48,3.57,.48,17.88,.03,35.77,.03,53.65,.01,5.19,0,6.58-1.41,6.61-7.02,.06-11.87,.02-23.74,.02-35.61,0-1.62,0-3.24,0-5.18Zm136.93,202.94c0-6.92-.12-13.52,.04-20.12,.12-4.98-.17-9.18-4.55-13.08-2.83-2.52-4.78-7.61-4.68-11.48,.14-5.63,1.19-12.04,4.16-16.61,4.54-6.98,5.5-14.03,5.06-21.82-.22-3.84,.02-7.71-.07-11.56-.03-1.36-.46-2.7-.59-4.06-.58-5.73-1.66-11.48-1.54-17.2,.13-6.25,1.7-12.46,2.07-18.73,.35-5.95-1.65-7.72-7.59-7.72-76.77-.01-153.53-.01-230.3,0-5.64,0-7.4,1.8-7.41,7.52-.02,38.69-.01,77.38,0,116.07,0,.91,.24,1.82,.49,3.55,16.44-45.5,70.42-67.48,106.02-58.44-50.55,2.72-83.65,30.48-106.85,73.67h245.72Zm-.02,11.52H142.39c-1.34,11.35-.05,12.85,10.74,12.85,74.72,0,149.45,0,224.17,0,1.39,0,2.77,.02,4.16-.02,3.71-.12,5.66-2.14,5.89-5.75,.15-2.27,.03-4.55,.03-7.07Zm-75.67,52.81c-2.23-1.67-3.41-2.82-4.81-3.57-9.22-4.96-16.64-11.53-20.44-21.66-.36-.97-2.32-1.9-3.55-1.92-12.32-.14-24.64-.16-36.95,.02-1.3,.02-3.28,1.18-3.76,2.32-3.64,8.59-9.83,14.74-17.6,19.57-2.16,1.34-4.16,2.95-7.36,5.24h94.47Zm148.75-55.33c0-3.85-3.18-7.04-7.03-7.04-3.85,0-7.04,3.18-7.04,7.03,0,3.85,3.18,7.04,7.03,7.04,3.85,0,7.04-3.18,7.04-7.03Zm2.34-64.4c-3.86-.05-7.09,3.07-7.15,6.91-.06,3.85,3.07,7.09,6.91,7.15,3.85,.06,7.08-3.07,7.15-6.92,.06-3.85-3.07-7.09-6.91-7.14Z"/>
      <path class="cls-2" d="M205.43,170.57c-2.69,2.85-6.28,4.21-11.24,1.84,1.02-1.46,1.88-2.63,2.68-3.84,3.88-5.91,7.78-11.81,11.57-17.77,1.54-2.42,1.95-5.05-.64-7.03-2.69-2.06-5.31-1.09-7.43,1.1-2.44,2.52-4.71,5.21-7.51,8.35-2.79-3.17-4.9-5.55-6.99-7.94-2.36-2.71-4.67-6.02-8.73-2.82-3.77,2.97-1.45,5.96,.46,8.87,2.36,3.58,4.62,7.22,7.6,11.89-5.17,2.23-9.77,4.53-14.6,6.19-3.75,1.3-6.1-.87-6.09-4.61,.02-4.74,.65-9.48,1.07-14.21,.14-1.53,.87-3.12,.59-4.54-.41-2.05-1.45-5.6-2.28-5.62-2.29-.05-5.66,.75-6.7,2.4-2.32,3.69-3.49,8.11-5.11,12.23-.44,1.11-.82,2.25-1.22,3.37-.47,.19-.93,.38-1.4,.56-1.44-2.8-3.08-5.51-4.24-8.42-.72-1.82-.81-3.92-.98-5.91-.23-2.79-1.3-5.36-4.29-4.7-1.88,.42-4.34,2.64-4.76,4.46-1.67,7.34-.68,14.42,4.37,20.45,1.86,2.21,3.88,4.28,6.2,6.82-4.09,1.61-7.82,3.16-11.61,4.53-.95,.34-2.35,.56-3.12,.1-5.18-3.09-10.6-5.95-15.24-9.74-3.06-2.5-1.92-7.79,1.03-11.33,1.75-2.11,2.98-4.64,4.55-6.91,.95-1.37,2.32-2.47,3.13-3.91,.7-1.24,1.48-2.92,1.17-4.14-1.2-4.69,.57-7.51,4.55-9.9,2.45-1.47,4.73-3.68,6.28-6.08,3.5-5.39,6.29-6.81,12.69-5.91,1.58,.22,3.95-.08,4.88-1.11,4.95-5.43,10.3-6.35,16.28-2.24,8.81-8.24,12.44-7.78,17.07,2.33,4.89-1.28,8.58,.34,9.91,5.59,.76,.03,1.22,.15,1.63,.06,11.91-2.52,15.86,.73,16.18,12.99,.04,1.57,1.18,3.2,2.06,4.64,.62,1.02,2.15,1.64,2.44,2.68,2.06,7.15,4.47,14.26,5.6,21.57,.69,4.5-4.24,8.44-9.31,8.16-3.26-.18-6.46-1.5-10.54-2.52Z"/>
      <path class="cls-2" d="M326.2,154.2c-2.65-2.75-4.93-5.21-7.31-7.57-2.16-2.14-4.72-3.25-7.42-1.19-2.59,1.97-2.12,4.56-.56,7.02,4.35,6.85,8.72,13.68,13.3,20.85-4.2,2.31-7.69,.95-10.86-2.26-2.37,.92-4.57,2-6.9,2.62-4.27,1.13-8.03-.09-10.67-3.63-2.77-3.71-2.1-7.38,.56-11.06,.95-1.32,1.35-3.33,1.32-5.01-.08-4.73,.97-8.77,4.85-11.91,.98-.79,1.43-2.48,1.71-3.84,.3-1.48-.02-3.09,.19-4.6,1.02-7.16,5.1-10.33,12.25-9.03,3.05,.55,5.28,.89,6.55-2.64,.34-.94,1.91-2.19,2.74-2.08,4.21,.6,5.99-1.57,7.9-4.98,2.4-4.29,7.29-4.32,10.86-.28,1.98,2.24,3.51,2.72,6.2,1.37,4.26-2.14,8.17-.9,11.3,2.46,1.93,2.07,3.71,2.96,6.76,2.36,5.99-1.17,8.7,.68,11.98,6.25,1.08,1.84,2.76,3.63,4.6,4.66,5.68,3.16,6.48,4.47,5.33,10.92-.11,.59-.4,1.38-.14,1.76,2.49,3.68,4.62,7.76,7.74,10.84,6.29,6.21,5.12,13.19-3.1,16.13-1.64,.59-3.28,1.63-4.51,2.87-3.29,3.32-6.9,3.69-10.97,1.81-2.48-1.14-4.97-2.25-8-3.61,1.76-1.99,3.47-3.85,5.1-5.77,5.02-5.9,6.79-12.66,5.28-20.26-.56-2.83-1.92-4.99-5.18-4.83-3.26,.15-3.69,2.55-3.97,5.21-.51,4.91-1.41,9.72-6.19,13.69-.7-2.28-1.09-4.15-1.84-5.87-1.64-3.76-3.12-7.68-5.41-11.03-.88-1.28-4.02-1.91-5.72-1.42-1.12,.32-2.23,3.21-2.12,4.87,.32,4.75,1.57,9.43,1.91,14.17,.64,9.04-2.54,11.22-10.87,7.87-9.65-3.89-9.82-4.37-4.38-12.94,1.24-1.95,2.54-3.86,3.75-5.83,1.56-2.55,1.14-5.18-1.45-6.27-1.64-.69-4.61-.35-5.94,.77-3.12,2.62-5.61,5.98-8.69,9.41Z"/>
      <path class="cls-2" d="M274.07,177.07c-.95-2.51-1.83-4.82-2.71-7.15-1.08-2.87-1.93-5.85-3.3-8.58-1.53-3.05-4.06-3.97-7.69-3.59-3.33,.35-6.95-.14-10.18-1.12-4.4-1.33-5.48-1.16-6.56,3.27-1.23,5.06-2.93,9.75-8.81,11.63,.32,.38,.65,.77,.97,1.15,1.75-.83,3.51-1.65,5.68-2.67,4.03,3.1,6.09,7.81,7.23,12.94,.21,.93-.92,3.03-1.65,3.14-2.41,.37-6.17,1.08-7.17-.15-3.06-3.79-6.92-5.91-10.96-8.26-3.57-2.07-3.56-6.05-1.53-9.43,1.44-2.39,1.56-4.1,.1-6.6-2.71-4.62-1.35-7.7,3.33-10.17,1.29-.68,2.6-2.31,2.9-3.71,1.11-5.21,3.12-6.88,8.28-6.15,.61,.09,1.43,.51,1.79,.25,3.95-2.82,8.28-3.3,12.94-2.46,2.04,.37,4.16,.3,6.2,.66,2.04,.36,4.09,.86,6.04,1.58,2.07,.76,5.54,1.57,5.75,2.82,.81,4.63,3.78,6.85,7.03,9.66,3.79,3.28,1.41,7.32-1.09,10.64,5.22,10.97,3.54,14.43-7.76,15.36-.35,.96-.47,2.37-1.23,3.12-1.72,1.68-3.57,3.67-5.73,4.3-1.38,.4-4.75-1.22-4.87-2.22-.35-2.86-.34-6.39,1.08-8.69,2.21-3.58,6.54-3.25,9.76-.27,.54,.5,1.54,.52,2.15,.71Z"/>
      <path class="cls-2" d="M425.98,191.75c5.4,13.62,1.35,43.77-8.5,63.3-6.37-1.08-9.59-4.33-9.89-10.48-.14-2.89,.04-5.86,.61-8.69,2.11-10.48,13.19-37.67,17.78-44.12Z"/>
      <path class="cls-2" d="M468.39,195.19c-.58,15.99-11.02,36-25.35,48.48-4.46-2.8-7.02-7.32-5.02-11.94,2.57-5.95,5.78-11.95,10-16.8,6.2-7.11,13.54-13.23,20.37-19.74Z"/>
      <path class="cls-2" d="M440.2,281.05c.47-6.36,3.28-10.46,9.88-11.2,8.97-1.01,18.09-.71,27.15-.75,3.33-.01,6.67,.63,10.25,1-8.18,8.96-30.18,13.98-47.28,10.94Z"/>
      <path class="cls-2" d="M492.11,213c1.33,13.53-9.21,26.05-25.81,30.9-1.24-4.4-.62-8.44,2.16-12.02,6.32-8.15,14.95-13.36,23.65-18.88Z"/>
      <path class="cls-2" d="M462.64,258.24c2.29-4.94,6.02-7.35,10.87-8.07,9.27-1.37,18.23,.57,27.47,2.35-7.67,8.56-25.09,9.05-38.34,5.72Z"/>
      <path class="cls-2" d="M249.29,176.63c-6.39-5.32-5.94-11.01-4.07-16.88,.25-.77,1.39-1.69,2.15-1.71,.62-.02,1.81,1.18,1.83,1.87,.15,5.27,.09,10.55,.09,16.73Z"/>
      <path class="cls-2" d="M263.65,158.75c1.47,2.23,2.94,4.47,4.4,6.7-1.74,1.06-3.39,2.5-5.28,2.95-.62,.15-2.53-2.22-2.65-3.54-.16-1.86,.8-3.81,1.29-5.73,.74-.13,1.49-.26,2.23-.39Z"/>
      <path class="cls-2" d="M370.79,236.94c-8.5,22.85-5.02,44.25,7.88,51.31,2.44-17.59-1.87-34.06-7.88-51.31Zm-202.37,32.98c-9.33,7.21-10.69,18.97-3.62,31.28,7.98-7.94,9.41-20.28,3.62-31.28Zm15.37,20.24c10.75-6.54,14.59-16.2,10.98-27.11-10.06,5.27-14.32,15.55-10.98,27.11Zm-33.92,27.54c7.1-10.21,5.51-23.04-3.5-28.57-5.14,10.13-4.42,19.55,3.5,28.57Zm71.46-48.09c-8.01-4.28-16.24,2.33-19.38,15.35,10.16-.3,16.14-5.86,19.38-15.35Z"/>
      <path class="cls-2" d="M387.39,374.3c0,2.52,.12,4.81-.03,7.07-.23,3.61-2.19,5.64-5.89,5.75-1.39,.04-2.77,.02-4.16,.02-74.72,0-149.45,0-224.17,0-10.79,0-12.08-1.5-10.74-12.85h244.99Z"/>
      <path class="cls-2" d="M311.72,427.1h-94.47c3.2-2.29,5.2-3.89,7.36-5.24,7.77-4.83,13.96-10.99,17.6-19.57,.48-1.13,2.46-2.3,3.76-2.32,12.32-.17,24.63-.16,36.95-.02,1.23,.01,3.18,.94,3.55,1.92,3.79,10.13,11.22,16.69,20.44,21.66,1.4,.75,2.59,1.9,4.81,3.57Z"/>
      <path class="cls-2" d="M460.47,371.77c0,3.85-3.19,7.02-7.04,7.03-3.84,0-7.03-3.19-7.03-7.04,0-3.85,3.19-7.02,7.04-7.03,3.85,0,7.03,3.18,7.03,7.04Z"/>
      <path class="cls-2" d="M462.81,307.37c3.84,.05,6.97,3.3,6.91,7.14-.06,3.84-3.3,6.97-7.15,6.92-3.84-.06-6.97-3.29-6.91-7.15,.06-3.84,3.29-6.97,7.15-6.91Z"/>
      <path class="cls-2" d="M370.79,236.94c6.01,17.24,10.32,33.71,7.88,51.31-12.9-7.05-16.38-28.46-7.88-51.31Z"/>
      <path class="cls-2" d="M168.42,269.92c5.79,11.01,4.36,23.35-3.62,31.28-7.07-12.32-5.71-24.07,3.62-31.28Z"/>
      <path class="cls-2" d="M183.79,290.16c-3.34-11.56,.92-21.84,10.98-27.11,3.61,10.91-.23,20.57-10.98,27.11Z"/>
      <path class="cls-2" d="M149.87,317.7c-7.92-9.02-8.64-18.44-3.5-28.57,9.01,5.53,10.6,18.36,3.5,28.57Z"/>
      <path class="cls-2" d="M221.33,269.61c-3.24,9.49-9.22,15.04-19.38,15.35,3.14-13.02,11.36-19.63,19.38-15.35Z"/>
    </g>
  </g>
</svg>